<?xml version="1.0" encoding="UTF-8"?>
<svg id="Layer_1" data-name="Layer 1" xmlns="http://www.w3.org/2000/svg" xmlns:xlink="http://www.w3.org/1999/xlink" viewBox="0 0 233.03 233.03">
  <defs>
    <style>
      .cls-1 {
        fill: none;
      }

      .cls-1, .cls-2 {
        stroke-width: 0px;
      }

      .cls-2 {
        fill: #134f5c;
      }

      .cls-3 {
        clip-path: url(#clippath);
      }
    </style>
    <clipPath id="clippath">
      <rect class="cls-1" x="-.08" y=".44" width="233.6" height="233.6"/>
    </clipPath>
  </defs>
  <g class="cls-3">
    <path class="cls-2" d="m214.01.44H19.53C8.77.44.16,9.24.16,19.86v194.81c0,10.72,8.75,19.37,19.37,19.37h194.34c10.76,0,19.42-8.75,19.42-19.37V19.86c.09-10.62-8.56-19.42-19.28-19.42ZM69.18,193.14h-34.44v-103.51h34.44v103.51Zm-17.27-116.05c-10.86,0-19.65-8.75-19.65-19.61s8.8-19.65,19.65-19.65,19.61,8.8,19.61,19.65-8.75,19.61-19.61,19.61Zm146.98,116.05h-34.58l-.8-61.44s.8-16.38-17.08-16.24c-17.88.09-20.31,16.24-20.31,16.24v61.44h-34.86v-103.51h33.46v14.23s1.4-4.68,9.08-10.15c7.72-5.48,20.45-6.64,25.97-6.41,5.48.23,12.96-.7,25.46,7.91,13.43,9.27,13.8,33.46,13.8,33.46l-.14,64.48Z"/>
  </g>
</svg>