<?xml version="1.0" encoding="UTF-8"?>
<svg id="Layer_1" data-name="Layer 1" xmlns="http://www.w3.org/2000/svg" xmlns:xlink="http://www.w3.org/1999/xlink" viewBox="0 0 233.03 233.03">
  <defs>
    <style>
      .cls-1 {
        fill: none;
      }

      .cls-1, .cls-2, .cls-3 {
        stroke-width: 0px;
      }

      .cls-2 {
        fill: #fff;
      }

      .cls-3 {
        fill: #134f5c;
      }

      .cls-4 {
        clip-path: url(#clippath);
      }
    </style>
    <clipPath id="clippath">
      <rect class="cls-1" x="-.13" y=".17" width="233" height="233"/>
    </clipPath>
  </defs>
  <g class="cls-4">
    <path class="cls-3" d="m203.75,233.17H29c-16.06,0-29.12-13.02-29.12-29.12V29.29C-.13,13.24,12.94.17,29,.17h174.75c16.1,0,29.13,13.07,29.13,29.13v174.75c0,16.1-13.02,29.12-29.13,29.12Z"/>
  </g>
  <path class="cls-2" d="m89.35,175.85c54.94,0,84.99-45.55,84.99-84.99,0-1.26,0-2.57-.05-3.83,5.79-4.2,10.88-9.47,14.89-15.5-5.37,2.38-11.11,3.97-17.18,4.71,6.16-3.69,10.88-9.57,13.16-16.52-5.79,3.41-12.18,5.88-19,7.19-5.46-5.79-13.21-9.43-21.8-9.43-16.48,0-29.87,13.4-29.87,29.87,0,2.33.28,4.62.75,6.81-24.78-1.21-46.81-13.16-61.56-31.18-2.57,4.39-4.01,9.52-4.01,15.03,0,10.36,5.32,19.51,13.3,24.83-4.9-.14-9.52-1.49-13.54-3.69v.37c0,14.47,10.32,26.56,23.94,29.31-2.52.7-5.13,1.07-7.84,1.07-1.96,0-3.83-.19-5.6-.56,3.78,11.9,14.84,20.54,27.91,20.77-10.27,8.03-23.15,12.79-37.11,12.79-2.43,0-4.81-.09-7.14-.42,13.16,8.4,28.89,13.35,45.74,13.35"/>
</svg>