<?xml version="1.0" encoding="UTF-8"?>
<svg id="Layer_1" data-name="Layer 1" xmlns="http://www.w3.org/2000/svg" xmlns:xlink="http://www.w3.org/1999/xlink" viewBox="0 0 233.03 233.03">
  <defs>
    <style>
      .cls-1 {
        fill: none;
      }

      .cls-1, .cls-2, .cls-3 {
        stroke-width: 0px;
      }

      .cls-2 {
        fill: #fff;
      }

      .cls-3 {
        fill: #134f5c;
      }

      .cls-4 {
        clip-path: url(#clippath);
      }
    </style>
    <clipPath id="clippath">
      <rect class="cls-1" x=".5" y="-.32" width="233.01" height="233.66"/>
    </clipPath>
  </defs>
  <g class="cls-4">
    <path class="cls-3" d="m233.5,197.86c0,19.56-15.87,35.48-35.43,35.48H35.92c-19.56,0-35.43-15.91-35.43-35.48V35.21C.5,15.6,16.37-.32,35.92-.32h162.15c19.56,0,35.43,15.91,35.43,35.53v162.65Z"/>
  </g>
  <path class="cls-2" d="m68.27,51.5h100.73c9.57,0,17.41,7.82,17.41,17.46v101.01c0,9.6-7.79,17.41-17.41,17.41h-100.73c-9.57,0-17.41-7.82-17.41-17.41v-101.01c0-9.64,7.84-17.46,17.41-17.46Zm81.26,15.12c-3.36,0-6.07,2.76-6.07,6.13v14.65c0,3.37,2.75,6.13,6.07,6.13h15.31c3.36,0,6.07-2.76,6.07-6.13v-14.65c0-3.37-2.75-6.13-6.07-6.13h-15.31Zm21.52,42.36h-11.9c1.12,3.74,1.77,7.63,1.77,11.65,0,22.61-18.9,40.91-42.1,40.91s-42.1-18.3-42.1-40.91c0-4.03.61-7.96,1.73-11.65h-12.42v57.43c0,2.95,2.43,5.34,5.37,5.34h94.38c2.94,0,5.37-2.43,5.37-5.34l-.09-57.43Zm-52.32-16.24c-14.98,0-27.21,11.84-27.21,26.45s12.23,26.45,27.21,26.45,27.17-11.84,27.17-26.45c.05-14.65-12.09-26.45-27.17-26.45Z"/>
</svg>