<?xml version="1.0" encoding="UTF-8"?>
<svg id="Layer_1" data-name="Layer 1" xmlns="http://www.w3.org/2000/svg" xmlns:xlink="http://www.w3.org/1999/xlink" viewBox="0 0 233.03 233.03">
  <defs>
    <style>
      .cls-1 {
        fill: none;
      }

      .cls-1, .cls-2, .cls-3 {
        stroke-width: 0px;
      }

      .cls-2 {
        fill: #fff;
      }

      .cls-3 {
        fill: #134f5c;
      }

      .cls-4 {
        clip-path: url(#clippath);
      }
    </style>
    <clipPath id="clippath">
      <rect class="cls-1" x=".47" y="-.2" width="233" height="233.66"/>
    </clipPath>
  </defs>
  <g class="cls-4">
    <path class="cls-3" d="m233.47,197.97c0,19.56-15.87,35.48-35.43,35.48H35.9c-19.56,0-35.43-15.91-35.43-35.48V35.32C.47,15.71,16.34-.2,35.9-.2h162.15c19.56,0,35.43,15.91,35.43,35.53v162.65Z"/>
  </g>
  <g>
    <path class="cls-2" d="m74.59,134.54c0,7.88-6.4,14.26-14.28,14.25-7.88,0-14.26-6.4-14.25-14.28,0-7.87,6.39-14.25,14.26-14.25h14.26v14.28Z"/>
    <path class="cls-2" d="m81.78,134.54c0-7.88,6.39-14.26,14.27-14.26,7.87,0,14.25,6.38,14.26,14.26v35.72c0,7.88-6.38,14.27-14.26,14.27-7.88,0-14.27-6.38-14.27-14.26h0v-35.73Z"/>
    <path class="cls-2" d="m96.04,77.26c-7.88,0-14.26-6.4-14.25-14.28,0-7.88,6.4-14.26,14.28-14.25,7.87,0,14.25,6.39,14.25,14.26v14.26h-14.28Z"/>
    <path class="cls-2" d="m96.04,84.45c7.88,0,14.26,6.39,14.26,14.27,0,7.87-6.38,14.25-14.26,14.26h-35.72c-7.88,0-14.26-6.39-14.26-14.27,0-7.87,6.38-14.25,14.26-14.26h35.72Z"/>
    <path class="cls-2" d="m153.32,98.71c0-7.88,6.4-14.26,14.28-14.25,7.88,0,14.26,6.4,14.25,14.28,0,7.87-6.39,14.25-14.26,14.25h-14.26v-14.28Z"/>
    <path class="cls-2" d="m146.13,98.71c0,7.88-6.39,14.26-14.27,14.26-7.87,0-14.25-6.38-14.26-14.26v-35.72c0-7.88,6.38-14.27,14.26-14.27,7.88,0,14.27,6.38,14.27,14.26h0v35.73Z"/>
    <path class="cls-2" d="m131.87,155.99c7.88,0,14.26,6.4,14.25,14.28,0,7.88-6.4,14.26-14.28,14.25-7.87,0-14.25-6.39-14.25-14.26v-14.26h14.28Z"/>
    <path class="cls-2" d="m131.87,148.8c-7.88,0-14.26-6.39-14.26-14.27,0-7.87,6.38-14.25,14.26-14.26h35.72c7.88,0,14.27,6.38,14.27,14.26,0,7.88-6.38,14.27-14.26,14.27h-35.73Z"/>
  </g>
</svg>